<svg width="109" height="80" viewBox="0 0 109 80" fill="none" xmlns="http://www.w3.org/2000/svg">
<path d="M10 42.5H27.5V55H32.5V77.5H27.5V80H10V77.5H2.5V67.5H5V55H10V42.5Z" fill="#41D83D"/>
<path d="M30 52.5H32.5V57.5H30V52.5Z" fill="black"/>
<path fill-rule="evenodd" clip-rule="evenodd" d="M25 40H12.5V42.5H10V45H7.5V50H5V60H2.5V67.5H0V77.5H2.5V80H5V77.5H2.5V67.5H5V60H7.5V55H10V52.5H15V50H25V52.5H27.5V65H30V60H35V65H37.5V77.5H35V80H37.5V77.5H40V65H37.5V60H35V52.5H32.5V47.5H30V45H27.5V42.5H25V40ZM25 42.5V45H27.5V47.5H30V52.5H27.5V50H25V47.5H12.5V50H10V45H12.5V42.5H25ZM10 50V52.5H7.5V50H10Z" fill="black"/>
<path fill-rule="evenodd" clip-rule="evenodd" d="M17.5 42.5H25V45H27.5V47.5H30V52.5H27.5V50H25V47.5H22.5V45H17.5V42.5ZM30 52.5H32.5V57.5H30V52.5Z" fill="#009F00"/>
<path d="M25 52.5H27.5V67.5H25V57.5H22.5V52.5H20V50H25V52.5Z" fill="#009F00"/>
<path d="M35 60V65H37.5V77.5H35V80H5V77.5H30V75H32.5V62.5H30V60H35Z" fill="#009F00"/>
<path d="M5 77.5H2.5V75H5V77.5Z" fill="#009F00"/>
<path d="M7.5 50H10V52.5H7.5V50Z" fill="#009F00"/>
<path d="M15 57.5H12.5V60H10V62.5H12.5V65H15V62.5H17.5V60H15V57.5Z" fill="#93FCEE"/>
<path d="M10 67.5H7.5V70H5V72.5H7.5V75H10V72.5H12.5V70H10V67.5Z" fill="#93FCEE"/>
<path d="M22.5 70H25V72.5H27.5V75H25V77.5H22.5V75H20V72.5H22.5V70Z" fill="#93FCEE"/>
<path d="M49 5H84V30H94V75H84V80H49V75H34V55H39V30H49V5Z" fill="#41D83D"/>
<path d="M89 25H94V35H89V25Z" fill="black"/>
<path fill-rule="evenodd" clip-rule="evenodd" d="M79 0H54V5H49V10H44V20H39V40H34V55H29V75H34V80H39V75H34V55H39V40H44V30H49V25H59V20H79V25H84V50H89V40H99V50H104V75H99V80H104V75H109V50H104V40H99V25H94V15H89V10H84V5H79V0ZM79 5V10H84V15H89V25H84V20H79V15H54V20H49V10H54V5H79ZM49 20V25H44V20H49Z" fill="black"/>
<path fill-rule="evenodd" clip-rule="evenodd" d="M64 5H79V10H84V15H89V25H84V20H79V15H74V10H64V5ZM89 25H94V35H89V25Z" fill="#009F00"/>
<path d="M79 25H84V55H79V35H74V25H69V20H79V25Z" fill="#009F00"/>
<path d="M99 40V50H104V75H99V80H39V75H89V70H94V45H89V40H99Z" fill="#009F00"/>
<path d="M39 75H34V70H39V75Z" fill="#009F00"/>
<path d="M44 20H49V25H44V20Z" fill="#009F00"/>
<path d="M59 35H54V40H49V45H54V50H59V45H64V40H59V35Z" fill="#93FCEE"/>
<path d="M49 55H44V60H39V65H44V70H49V65H54V60H49V55Z" fill="#93FCEE"/>
<path d="M74 60H79V65H84V70H79V75H74V70H69V65H74V60Z" fill="#93FCEE"/>
</svg>
