<svg width="88" height="136" viewBox="0 0 88 136" fill="none" xmlns="http://www.w3.org/2000/svg">
<g clip-path="url(#clip0_129_82949)">
<rect x="2" y="72" width="60" height="800" fill="black"/>
<rect x="4" y="72" width="56" height="800" fill="#41D83D"/>
<path d="M38 72H60V872H38V72Z" fill="#009F00"/>
<path d="M24 72H36V872H24V72Z" fill="#009F00"/>
<path d="M18 72H22V872H18V72Z" fill="#009F00"/>
<path d="M4 72H8V872H4V72Z" fill="#009F00"/>
<path d="M10 72H12V872H10V72Z" fill="#009F00"/>
<path d="M58 72H60V872H58V72Z" fill="black"/>
<path d="M44 72H46V872H44V72Z" fill="black"/>
<path d="M40 72H42V872H40V72Z" fill="black"/>
<path d="M48 72H56V872H48V72Z" fill="black"/>
</g>
<rect y="40" width="64" height="32" fill="black"/>
<rect x="2" y="42" width="60" height="26" fill="#41D83D"/>
<path d="M40 44H62V68H40V44Z" fill="#009F00"/>
<path d="M22 44H38V68H22V44Z" fill="#009F00"/>
<path d="M16 44H20V68H16V44Z" fill="#009F00"/>
<path d="M2 44H6V68H2V44Z" fill="#009F00"/>
<path d="M8 44H10V68H8V44Z" fill="#009F00"/>
<path d="M60 44H62V68H60V44Z" fill="black"/>
<path d="M46 44H48V68H46V44Z" fill="black"/>
<path d="M42 44H44V68H42V44Z" fill="black"/>
<path d="M50 44H58V68H50V44Z" fill="black"/>
<rect x="12" y="17.5" width="2.5" height="2.5" fill="#C5712F"/>
<rect width="2.5" height="2.5" transform="matrix(-1 0 0 1 52 17.5)" fill="#C5712F"/>
<rect x="14.5" y="17.5" width="2.5" height="2.5" fill="#C5712F"/>
<rect width="2.5" height="2.5" transform="matrix(-1 0 0 1 49.5 17.5)" fill="#C5712F"/>
<rect x="17" y="17.5" width="2.5" height="2.5" fill="#C5712F"/>
<rect width="2.5" height="2.5" transform="matrix(-1 0 0 1 47 17.5)" fill="#C5712F"/>
<rect x="19.5" y="17.5" width="2.5" height="2.5" fill="#C5712F"/>
<rect width="2.5" height="2.5" transform="matrix(-1 0 0 1 44.5 17.5)" fill="#C5712F"/>
<rect x="22" y="17.5" width="2.5" height="2.5" fill="#F0D0B0"/>
<rect width="2.5" height="2.5" transform="matrix(-1 0 0 1 42 17.5)" fill="#F0D0B0"/>
<rect x="24.5" y="17.5" width="2.5" height="2.5" fill="black"/>
<rect width="2.5" height="2.5" transform="matrix(-1 0 0 1 39.5 17.5)" fill="black"/>
<rect x="27" y="17.5" width="2.5" height="2.5" fill="#F0D0B0"/>
<rect x="29.5" y="17.5" width="2.5" height="2.5" fill="#C5712F"/>
<rect x="32" y="17.5" width="2.5" height="2.5" fill="#C5712F"/>
<rect x="34.5" y="17.5" width="2.5" height="2.5" fill="#F0D0B0"/>
<rect x="14.5" y="15" width="2.5" height="2.5" fill="#C5712F"/>
<rect width="2.5" height="2.5" transform="matrix(-1 0 0 1 49.5 15)" fill="#C5712F"/>
<rect x="17" y="15" width="2.5" height="2.5" fill="#C5712F"/>
<rect width="2.5" height="2.5" transform="matrix(-1 0 0 1 47 15)" fill="#C5712F"/>
<rect x="19.5" y="15" width="2.5" height="2.5" fill="#C5712F"/>
<rect width="2.5" height="2.5" transform="matrix(-1 0 0 1 44.5 15)" fill="#C5712F"/>
<rect x="22" y="15" width="2.5" height="2.5" fill="#F0D0B0"/>
<rect width="2.5" height="2.5" transform="matrix(-1 0 0 1 42 15)" fill="#F0D0B0"/>
<rect x="24.5" y="15" width="2.5" height="2.5" fill="black"/>
<rect width="2.5" height="2.5" transform="matrix(-1 0 0 1 39.5 15)" fill="black"/>
<rect x="27" y="15" width="2.5" height="2.5" fill="black"/>
<rect x="29.5" y="15" width="2.5" height="2.5" fill="black"/>
<rect x="32" y="15" width="2.5" height="2.5" fill="black"/>
<rect x="34.5" y="15" width="2.5" height="2.5" fill="black"/>
<rect x="14.5" y="12.5" width="2.5" height="2.5" fill="#C5712F"/>
<rect width="2.5" height="2.5" transform="matrix(-1 0 0 1 49.5 12.5)" fill="#C5712F"/>
<rect x="17" y="12.5" width="2.5" height="2.5" fill="#C5712F"/>
<rect width="2.5" height="2.5" transform="matrix(-1 0 0 1 47 12.5)" fill="#C5712F"/>
<rect x="19.5" y="12.5" width="2.5" height="2.5" fill="#C5712F"/>
<rect width="2.5" height="2.5" transform="matrix(-1 0 0 1 44.5 12.5)" fill="#C5712F"/>
<rect x="22" y="12.5" width="2.5" height="2.5" fill="#F0D0B0"/>
<rect width="2.5" height="2.5" transform="matrix(-1 0 0 1 42 12.5)" fill="#F0D0B0"/>
<rect x="24.5" y="12.5" width="2.5" height="2.5" fill="black"/>
<rect width="2.5" height="2.5" transform="matrix(-1 0 0 1 39.5 12.5)" fill="black"/>
<rect x="27" y="12.5" width="2.5" height="2.5" fill="#C5712F"/>
<rect x="29.5" y="12.5" width="2.5" height="2.5" fill="#C5712F"/>
<rect x="32" y="12.5" width="2.5" height="2.5" fill="#C5712F"/>
<rect x="34.5" y="12.5" width="2.5" height="2.5" fill="#C5712F"/>
<rect x="17" y="10" width="2.5" height="2.5" fill="#C5712F"/>
<rect width="2.5" height="2.5" transform="matrix(-1 0 0 1 47 10)" fill="#C5712F"/>
<rect x="19.5" y="10" width="2.5" height="2.5" fill="black"/>
<rect width="2.5" height="2.5" transform="matrix(-1 0 0 1 44.5 10)" fill="black"/>
<rect x="22" y="10" width="2.5" height="2.5" fill="black"/>
<rect width="2.5" height="2.5" transform="matrix(-1 0 0 1 42 10)" fill="black"/>
<rect x="24.5" y="10" width="2.5" height="2.5" fill="#C5712F"/>
<rect width="2.5" height="2.5" transform="matrix(-1 0 0 1 39.5 10)" fill="#C5712F"/>
<rect x="27" y="10" width="2.5" height="2.5" fill="#C5712F"/>
<rect x="29.5" y="10" width="2.5" height="2.5" fill="#C5712F"/>
<rect x="32" y="10" width="2.5" height="2.5" fill="#C5712F"/>
<rect x="34.5" y="10" width="2.5" height="2.5" fill="#C5712F"/>
<rect x="19.5" y="7.5" width="2.5" height="2.5" fill="#C5712F"/>
<rect width="2.5" height="2.5" transform="matrix(-1 0 0 1 44.5 7.5)" fill="#C5712F"/>
<rect x="22" y="7.5" width="2.5" height="2.5" fill="#C5712F"/>
<rect width="2.5" height="2.5" transform="matrix(-1 0 0 1 42 7.5)" fill="#C5712F"/>
<rect x="24.5" y="7.5" width="2.5" height="2.5" fill="#C5712F"/>
<rect width="2.5" height="2.5" transform="matrix(-1 0 0 1 39.5 7.5)" fill="#C5712F"/>
<rect x="27" y="7.5" width="2.5" height="2.5" fill="#C5712F"/>
<rect x="29.5" y="7.5" width="2.5" height="2.5" fill="#C5712F"/>
<rect x="32" y="7.5" width="2.5" height="2.5" fill="#C5712F"/>
<rect x="34.5" y="7.5" width="2.5" height="2.5" fill="#C5712F"/>
<rect x="22" y="5" width="2.5" height="2.5" fill="#C5712F"/>
<rect width="2.5" height="2.5" transform="matrix(-1 0 0 1 42 5)" fill="#C5712F"/>
<rect x="24.5" y="5" width="2.5" height="2.5" fill="#C5712F"/>
<rect width="2.5" height="2.5" transform="matrix(-1 0 0 1 39.5 5)" fill="#C5712F"/>
<rect x="27" y="5" width="2.5" height="2.5" fill="#C5712F"/>
<rect x="29.5" y="5" width="2.5" height="2.5" fill="#C5712F"/>
<rect x="32" y="5" width="2.5" height="2.5" fill="#C5712F"/>
<rect x="34.5" y="5" width="2.5" height="2.5" fill="#C5712F"/>
<rect x="24.5" y="2.5" width="2.5" height="2.5" fill="#C5712F"/>
<rect width="2.5" height="2.5" transform="matrix(-1 0 0 1 39.5 2.5)" fill="#C5712F"/>
<rect x="27" y="2.5" width="2.5" height="2.5" fill="#C5712F"/>
<rect x="29.5" y="2.5" width="2.5" height="2.5" fill="#C5712F"/>
<rect x="32" y="2.5" width="2.5" height="2.5" fill="#C5712F"/>
<rect x="34.5" y="2.5" width="2.5" height="2.5" fill="#C5712F"/>
<rect x="27" width="2.5" height="2.5" fill="#C5712F"/>
<rect x="29.5" width="2.5" height="2.5" fill="#C5712F"/>
<rect x="32" width="2.5" height="2.5" fill="#C5712F"/>
<rect x="34.5" width="2.5" height="2.5" fill="#C5712F"/>
<rect x="12" y="20" width="2.5" height="2.5" fill="#C5712F"/>
<rect width="2.5" height="2.5" transform="matrix(-1 0 0 1 52 20)" fill="#C5712F"/>
<rect x="14.5" y="20" width="2.5" height="2.5" fill="#C5712F"/>
<rect width="2.5" height="2.5" transform="matrix(-1 0 0 1 49.5 20)" fill="#C5712F"/>
<rect x="17" y="20" width="2.5" height="2.5" fill="#C5712F"/>
<rect width="2.5" height="2.5" transform="matrix(-1 0 0 1 47 20)" fill="#C5712F"/>
<rect x="19.5" y="20" width="2.5" height="2.5" fill="#C5712F"/>
<rect width="2.5" height="2.5" transform="matrix(-1 0 0 1 44.5 20)" fill="#C5712F"/>
<rect x="22" y="20" width="2.5" height="2.5" fill="#F0D0B0"/>
<rect width="2.5" height="2.5" transform="matrix(-1 0 0 1 42 20)" fill="#F0D0B0"/>
<rect x="24.5" y="20" width="2.5" height="2.5" fill="#F0D0B0"/>
<rect width="2.5" height="2.5" transform="matrix(-1 0 0 1 39.5 20)" fill="#F0D0B0"/>
<rect x="27" y="20" width="2.5" height="2.5" fill="#F0D0B0"/>
<rect x="29.5" y="20" width="2.5" height="2.5" fill="#C5712F"/>
<rect x="32" y="20" width="2.5" height="2.5" fill="#C5712F"/>
<rect x="34.5" y="20" width="2.5" height="2.5" fill="#F0D0B0"/>
<rect x="12" y="22.5" width="2.5" height="2.5" fill="#C5712F"/>
<rect width="2.5" height="2.5" transform="matrix(-1 0 0 1 52 22.5)" fill="#C5712F"/>
<rect x="14.5" y="22.5" width="2.5" height="2.5" fill="#C5712F"/>
<rect width="2.5" height="2.5" transform="matrix(-1 0 0 1 49.5 22.5)" fill="#C5712F"/>
<rect x="17" y="22.5" width="2.5" height="2.5" fill="#C5712F"/>
<rect width="2.5" height="2.5" transform="matrix(-1 0 0 1 47 22.5)" fill="#C5712F"/>
<rect x="19.5" y="22.5" width="2.5" height="2.5" fill="#C5712F"/>
<rect width="2.5" height="2.5" transform="matrix(-1 0 0 1 44.5 22.5)" fill="#C5712F"/>
<rect x="22" y="22.5" width="2.5" height="2.5" fill="#C5712F"/>
<rect width="2.5" height="2.5" transform="matrix(-1 0 0 1 42 22.5)" fill="#C5712F"/>
<rect x="24.5" y="22.5" width="2.5" height="2.5" fill="#C5712F"/>
<rect width="2.5" height="2.5" transform="matrix(-1 0 0 1 39.5 22.5)" fill="#C5712F"/>
<rect x="27" y="22.5" width="2.5" height="2.5" fill="#C5712F"/>
<rect x="29.5" y="22.5" width="2.5" height="2.5" fill="#C5712F"/>
<rect x="32" y="22.5" width="2.5" height="2.5" fill="#C5712F"/>
<rect x="34.5" y="22.5" width="2.5" height="2.5" fill="#C5712F"/>
<rect x="14.5" y="25" width="2.5" height="2.5" fill="#C5712F"/>
<rect width="2.5" height="2.5" transform="matrix(-1 0 0 1 49.5 25)" fill="#C5712F"/>
<rect x="17" y="25" width="2.5" height="2.5" fill="#C5712F"/>
<rect width="2.5" height="2.5" transform="matrix(-1 0 0 1 47 25)" fill="#C5712F"/>
<rect x="19.5" y="25" width="2.5" height="2.5" fill="#C5712F"/>
<rect width="2.5" height="2.5" transform="matrix(-1 0 0 1 44.5 25)" fill="#C5712F"/>
<rect x="22" y="25" width="2.5" height="2.5" fill="#C5712F"/>
<rect x="22" y="27.5" width="2.5" height="2.5" fill="#F0D0B0"/>
<rect x="22" y="30" width="2.5" height="2.5" fill="#F0D0B0"/>
<rect x="22" y="32.5" width="2.5" height="2.5" fill="black"/>
<rect x="22" y="35" width="2.5" height="2.5" fill="black"/>
<rect x="22" y="37.5" width="2.5" height="2.5" fill="black"/>
<rect x="17" y="30" width="2.5" height="2.5" fill="black"/>
<rect x="17" y="32.5" width="2.5" height="2.5" fill="black"/>
<rect x="17" y="35" width="2.5" height="2.5" fill="black"/>
<rect x="17" y="37.5" width="2.5" height="2.5" fill="black"/>
<rect x="14.5" y="32.5" width="2.5" height="2.5" fill="black"/>
<rect x="14.5" y="35" width="2.5" height="2.5" fill="black"/>
<rect width="2.5" height="2.5" transform="matrix(-1 0 0 1 42 25)" fill="#C5712F"/>
<rect width="2.5" height="2.5" transform="matrix(-1 0 0 1 42 27.5)" fill="#F0D0B0"/>
<rect width="2.5" height="2.5" transform="matrix(-1 0 0 1 42 30)" fill="#F0D0B0"/>
<rect width="2.5" height="2.5" transform="matrix(-1 0 0 1 42 32.5)" fill="black"/>
<rect width="2.5" height="2.5" transform="matrix(-1 0 0 1 42 35)" fill="black"/>
<rect width="2.5" height="2.5" transform="matrix(-1 0 0 1 42 37.5)" fill="black"/>
<rect width="2.5" height="2.5" transform="matrix(-1 0 0 1 44.5 32.5)" fill="black"/>
<rect width="2.5" height="2.5" transform="matrix(-1 0 0 1 44.5 35)" fill="black"/>
<rect width="2.5" height="2.5" transform="matrix(-1 0 0 1 44.5 37.5)" fill="#C5712F"/>
<rect width="2.5" height="2.5" transform="matrix(-1 0 0 1 47 37.5)" fill="#C5712F"/>
<rect x="24.5" y="25" width="2.5" height="2.5" fill="#F0D0B0"/>
<rect x="24.5" y="27.5" width="2.5" height="2.5" fill="#F0D0B0"/>
<rect x="24.5" y="30" width="2.5" height="2.5" fill="#F0D0B0"/>
<rect x="24.5" y="32.5" width="2.5" height="2.5" fill="black"/>
<rect x="24.5" y="35" width="2.5" height="2.5" fill="black"/>
<rect x="24.5" y="37.5" width="2.5" height="2.5" fill="black"/>
<rect x="19.5" y="30" width="2.5" height="2.5" fill="black"/>
<rect x="19.5" y="32.5" width="2.5" height="2.5" fill="black"/>
<rect x="19.5" y="35" width="2.5" height="2.5" fill="black"/>
<rect x="19.5" y="37.5" width="2.5" height="2.5" fill="black"/>
<rect width="2.5" height="2.5" transform="matrix(-1 0 0 1 39.5 25)" fill="#F0D0B0"/>
<rect width="2.5" height="2.5" transform="matrix(-1 0 0 1 39.5 27.5)" fill="#F0D0B0"/>
<rect width="2.5" height="2.5" transform="matrix(-1 0 0 1 39.5 30)" fill="#F0D0B0"/>
<rect width="2.5" height="2.5" transform="matrix(-1 0 0 1 39.5 32.5)" fill="#F0D0B0"/>
<rect width="2.5" height="2.5" transform="matrix(-1 0 0 1 39.5 35)" fill="black"/>
<rect width="2.5" height="2.5" transform="matrix(-1 0 0 1 39.5 37.5)" fill="black"/>
<rect x="27" y="25" width="2.5" height="2.5" fill="#F0D0B0"/>
<rect x="27" y="27.5" width="2.5" height="2.5" fill="#F0D0B0"/>
<rect x="27" y="30" width="2.5" height="2.5" fill="#F0D0B0"/>
<rect x="27" y="32.5" width="2.5" height="2.5" fill="#F0D0B0"/>
<rect x="27" y="35" width="2.5" height="2.5" fill="black"/>
<rect x="27" y="37.5" width="2.5" height="2.5" fill="black"/>
<rect x="29.5" y="25" width="2.5" height="2.5" fill="#F0D0B0"/>
<rect x="29.5" y="27.5" width="2.5" height="2.5" fill="#F0D0B0"/>
<rect x="29.5" y="30" width="2.5" height="2.5" fill="#F0D0B0"/>
<rect x="29.5" y="32.5" width="2.5" height="2.5" fill="#F0D0B0"/>
<rect x="29.5" y="35" width="2.5" height="2.5" fill="#F0D0B0"/>
<rect x="29.5" y="37.5" width="2.5" height="2.5" fill="#C5712F"/>
<rect x="32" y="25" width="2.5" height="2.5" fill="#F0D0B0"/>
<rect x="32" y="27.5" width="2.5" height="2.5" fill="#F0D0B0"/>
<rect x="32" y="30" width="2.5" height="2.5" fill="#F0D0B0"/>
<rect x="32" y="32.5" width="2.5" height="2.5" fill="#F0D0B0"/>
<rect x="32" y="35" width="2.5" height="2.5" fill="#F0D0B0"/>
<rect x="32" y="37.5" width="2.5" height="2.5" fill="#F0D0B0"/>
<rect x="34.5" y="25" width="2.5" height="2.5" fill="#F0D0B0"/>
<rect x="34.5" y="27.5" width="2.5" height="2.5" fill="#F0D0B0"/>
<rect x="34.5" y="30" width="2.5" height="2.5" fill="#F0D0B0"/>
<rect x="34.5" y="32.5" width="2.5" height="2.5" fill="#F0D0B0"/>
<rect x="34.5" y="35" width="2.5" height="2.5" fill="#F0D0B0"/>
<rect x="34.5" y="37.5" width="2.5" height="2.5" fill="black"/>
<path d="M78 98.5H60.5V111H55.5V133.5H60.5V136H78V133.5H85.5V123.5H83V111H78V98.5Z" fill="#41D83D"/>
<path d="M58 108.5H55.5V113.5H58V108.5Z" fill="black"/>
<path fill-rule="evenodd" clip-rule="evenodd" d="M63 96H75.5V98.5H78V101H80.5V106H83V116H85.5V123.5H88V133.5H85.5V136H83V133.5H85.5V123.5H83V116H80.5V111H78V108.5H73V106H63V108.5H60.5V121H58V116H53V121H50.5V133.5H53V136H50.5V133.5H48V121H50.5V116H53V108.5H55.5V103.5H58V101H60.5V98.5H63V96ZM63 98.5V101H60.5V103.5H58V108.5H60.5V106H63V103.5H75.5V106H78V101H75.5V98.5H63ZM78 106V108.5H80.5V106H78Z" fill="black"/>
<path fill-rule="evenodd" clip-rule="evenodd" d="M70.5 98.5H63V101H60.5V103.5H58V108.5H60.5V106H63V103.5H65.5V101H70.5V98.5ZM58 108.5H55.5V113.5H58V108.5Z" fill="#009F00"/>
<path d="M63 108.5H60.5V123.5H63V113.5H65.5V108.5H68V106H63V108.5Z" fill="#009F00"/>
<path d="M53 116V121H50.5V133.5H53V136H83V133.5H58V131H55.5V118.5H58V116H53Z" fill="#009F00"/>
<path d="M83 133.5H85.5V131H83V133.5Z" fill="#009F00"/>
<path d="M80.5 106H78V108.5H80.5V106Z" fill="#009F00"/>
<path d="M73 113.5H75.5V116H78V118.5H75.5V121H73V118.5H70.5V116H73V113.5Z" fill="#93FCEE"/>
<path d="M78 123.5H80.5V126H83V128.5H80.5V131H78V128.5H75.5V126H78V123.5Z" fill="#93FCEE"/>
<path d="M65.5 126H63V128.5H60.5V131H63V133.5H65.5V131H68V128.5H65.5V126Z" fill="#93FCEE"/>
<defs>
<clipPath id="clip0_129_82949">
<rect width="60" height="64" fill="white" transform="translate(2 72)"/>
</clipPath>
</defs>
</svg>
